<?xml version="1.0" encoding="UTF-8"?>
<!DOCTYPE svg PUBLIC "-//W3C//DTD SVG 1.1//EN" "http://www.w3.org/Graphics/SVG/1.1/DTD/svg11.dtd">
<svg xmlns="http://www.w3.org/2000/svg" version="1.1" width="886px" height="880px" style="shape-rendering:geometricPrecision; text-rendering:geometricPrecision; image-rendering:optimizeQuality; fill-rule:evenodd; clip-rule:evenodd" xmlns:xlink="http://www.w3.org/1999/xlink">
<g><path style="opacity:0.322" fill="#fdf7d9" d="M 412.5,-0.5 C 432.5,-0.5 452.5,-0.5 472.5,-0.5C 476.5,0.166667 480.5,0.833333 484.5,1.5C 456.501,0.191326 428.501,0.191326 400.5,1.5C 404.5,0.833333 408.5,0.166667 412.5,-0.5 Z"/></g>
<g><path style="opacity:1" fill="#fdf17f" d="M 484.5,1.5 C 485.833,1.5 487.167,1.5 488.5,1.5C 490.403,2.45148 492.403,3.45148 494.5,4.5C 499.277,5.72056 504.277,5.72056 509.5,4.5C 521.866,5.57381 533.866,7.90715 545.5,11.5C 548.219,12.913 551.219,13.5797 554.5,13.5C 565.835,16.0589 576.835,19.3922 587.5,23.5C 589.792,25.2671 592.458,26.2671 595.5,26.5C 674.643,55.0056 739.976,102.339 791.5,168.5C 792.08,170.749 793.413,172.415 795.5,173.5C 798.933,176.601 801.6,180.268 803.5,184.5C 804.553,189.531 807.053,194.198 811,198.5C 811.483,199.448 811.649,200.448 811.5,201.5C 813.514,201.392 815.18,202.058 816.5,203.5C 818.418,208.343 821.084,212.677 824.5,216.5C 850.764,263.627 869.097,313.627 879.5,366.5C 879.438,371.076 880.105,375.409 881.5,379.5C 881.5,379.833 881.5,380.167 881.5,380.5C 881.073,386.114 881.74,391.447 883.5,396.5C 883.5,396.833 883.5,397.167 883.5,397.5C 885.112,428.526 884.778,459.526 882.5,490.5C 867.155,595.666 821.822,685.333 746.5,759.5C 745.833,760.833 744.833,761.833 743.5,762.5C 740.236,764.094 737.569,766.427 735.5,769.5C 735.5,770.167 735.167,770.5 734.5,770.5C 731.911,771.419 729.911,773.086 728.5,775.5C 728.5,776.167 728.167,776.5 727.5,776.5C 725.251,777.08 723.585,778.413 722.5,780.5C 720.251,781.08 718.585,782.413 717.5,784.5C 715.596,784.738 714.262,785.738 713.5,787.5C 713.5,788.167 713.167,788.5 712.5,788.5C 710.596,788.738 709.262,789.738 708.5,791.5C 705.63,792.433 703.296,794.1 701.5,796.5C 699.596,796.738 698.262,797.738 697.5,799.5C 695.973,799.427 694.973,800.094 694.5,801.5C 692.973,801.427 691.973,802.094 691.5,803.5C 689.973,803.427 688.973,804.094 688.5,805.5C 688.027,806.906 687.027,807.573 685.5,807.5C 683.973,807.427 682.973,808.094 682.5,809.5C 680.973,809.427 679.973,810.094 679.5,811.5C 679.158,812.338 678.492,812.672 677.5,812.5C 675.973,812.427 674.973,813.094 674.5,814.5C 612.534,852.599 545.201,874.266 472.5,879.5C 452.5,879.5 432.5,879.5 412.5,879.5C 339.799,874.266 272.466,852.599 210.5,814.5C 210.027,813.094 209.027,812.427 207.5,812.5C 205.371,810.05 202.704,808.383 199.5,807.5C 190.45,800.453 181.117,793.786 171.5,787.5C 169.596,787.262 168.262,786.262 167.5,784.5C 166.415,782.413 164.749,781.08 162.5,780.5C 161.089,778.086 159.089,776.419 156.5,775.5C 154.761,772.757 152.427,770.757 149.5,769.5C 146.437,765.434 142.771,762.101 138.5,759.5C 132.167,752.5 125.5,745.833 118.5,739.5C 56.4506,674.062 18.2839,596.395 4,506.5C 2.37477,493.696 0.874771,481.03 -0.5,468.5C -0.5,449.167 -0.5,429.833 -0.5,410.5C 11.6144,275.407 71.2811,166.907 178.5,85C 244.617,36.798 318.617,8.96463 400.5,1.5C 428.501,0.191326 456.501,0.191326 484.5,1.5 Z"/></g>
<g><path style="opacity:1" fill="#fef4a7" d="M 488.5,1.5 C 495.714,1.94104 502.714,2.94104 509.5,4.5C 504.277,5.72056 499.277,5.72056 494.5,4.5C 492.403,3.45148 490.403,2.45148 488.5,1.5 Z"/></g>
<g><path style="opacity:0.333" fill="#faf8d8" d="M 545.5,11.5 C 548.781,11.4203 551.781,12.087 554.5,13.5C 551.219,13.5797 548.219,12.913 545.5,11.5 Z"/></g>
<g><path style="opacity:0.859" fill="#fdfbe2" d="M 587.5,23.5 C 590.542,23.7329 593.208,24.7329 595.5,26.5C 592.458,26.2671 589.792,25.2671 587.5,23.5 Z"/></g>
<g><path style="opacity:1" fill="#141416" d="M 437.5,124.5 C 449.194,124.349 460.861,124.849 472.5,126C 498.221,152.056 524.221,177.722 550.5,203C 555.989,203.984 561.155,203.151 566,200.5C 566.667,198.833 566.667,197.167 566,195.5C 543.47,173.306 521.47,150.973 500,128.5C 578.315,146.296 641.648,186.963 690,250.5C 691.934,253.034 693.268,255.701 694,258.5C 661.916,285.444 629.416,311.777 596.5,337.5C 580.76,324.124 564.094,311.957 546.5,301C 497.829,271.958 446.163,264.958 391.5,280C 334.741,299.705 298.574,338.538 283,396.5C 282.577,397.956 281.744,398.456 280.5,398C 248.64,364.806 216.14,332.306 183,300.5C 182.333,299.167 182.333,297.833 183,296.5C 187.143,287.546 191.81,278.88 197,270.5C 227.361,301.195 258.028,331.528 289,361.5C 291.82,355.707 293.82,349.707 295,343.5C 265.891,314.057 236.558,285.057 207,256.5C 206.333,255.833 206.333,255.167 207,254.5C 212.091,247.32 217.424,240.32 223,233.5C 224.133,231.789 225.633,231.289 227.5,232C 255.305,258.805 282.805,285.972 310,313.5C 312.753,308.992 315.753,304.659 319,300.5C 319.667,299.833 319.667,299.167 319,298.5C 292.639,271.805 265.972,245.472 239,219.5C 238.333,218.5 238.333,217.5 239,216.5C 245.413,209.059 252.58,202.893 260.5,198C 286.167,223 311.833,248 337.5,273C 338.167,273.667 338.833,273.667 339.5,273C 342.867,269.297 346.534,265.964 350.5,263C 324.986,237.653 299.653,212.153 274.5,186.5C 281.258,180.282 288.592,174.782 296.5,170C 298.044,168.813 299.711,168.48 301.5,169C 326.305,192.805 350.805,216.972 375,241.5C 379.087,238.204 383.587,235.537 388.5,233.5C 389.521,232.998 389.688,232.332 389,231.5C 364.986,207.653 341.153,183.653 317.5,159.5C 326.363,153.652 335.863,148.986 346,145.5C 346.833,145.667 347.667,145.833 348.5,146C 372.472,168.972 396.139,192.305 419.5,216C 426.231,215.321 432.897,213.987 439.5,212C 415.305,187.472 390.805,163.305 366,139.5C 365.312,138.668 365.479,138.002 366.5,137.5C 377.9,133.565 389.567,131.065 401.5,130C 425.861,154.695 450.528,179.028 475.5,203C 477.199,203.958 479.033,204.458 481,204.5C 486.81,203.504 492.643,202.671 498.5,202C 473.293,176.626 447.959,151.459 422.5,126.5C 427.651,125.833 432.651,125.166 437.5,124.5 Z"/></g>
<g><path style="opacity:0.776" fill="#fcf9d3" d="M 791.5,168.5 C 793.587,169.585 794.92,171.251 795.5,173.5C 793.413,172.415 792.08,170.749 791.5,168.5 Z"/></g>
<g><path style="opacity:1" fill="#fef5a7" d="M 803.5,184.5 C 808.572,190.304 812.905,196.638 816.5,203.5C 815.18,202.058 813.514,201.392 811.5,201.5C 811.649,200.448 811.483,199.448 811,198.5C 807.053,194.198 804.553,189.531 803.5,184.5 Z"/></g>
<g><path style="opacity:0.339" fill="#fefdf0" d="M 816.5,203.5 C 819.916,207.323 822.582,211.657 824.5,216.5C 821.084,212.677 818.418,208.343 816.5,203.5 Z"/></g>
<g><path style="opacity:0.697" fill="#fefdf5" d="M 824.5,216.5 C 852.69,262.723 871.024,312.723 879.5,366.5C 869.097,313.627 850.764,263.627 824.5,216.5 Z"/></g>
<g><path style="opacity:1" fill="#151416" d="M 173.5,317.5 C 175.595,318.412 177.595,319.579 179.5,321C 212.361,354.195 245.528,387.028 279,419.5C 279.333,427.167 279.667,434.833 280,442.5C 281.249,451.577 282.582,460.577 284,469.5C 244.333,429.833 204.667,390.167 165,350.5C 164.542,347.442 164.876,344.442 166,341.5C 168.504,333.481 171.004,325.481 173.5,317.5 Z"/></g>
<g><path style="opacity:0.343" fill="#fefef6" d="M 879.5,366.5 C 880.895,370.591 881.562,374.924 881.5,379.5C 880.105,375.409 879.438,371.076 879.5,366.5 Z"/></g>
<g><path style="opacity:1" fill="#141416" d="M 459.5,737.5 C 453.355,738.49 447.022,738.823 440.5,738.5C 431.136,738.058 421.803,737.225 412.5,736C 374.167,697.667 335.833,659.333 297.5,621C 289.946,619.568 282.279,619.068 274.5,619.5C 274.491,621.308 274.991,622.975 276,624.5C 311.5,659.333 347,694.167 382.5,729C 353.376,722.109 326.043,710.775 300.5,695C 198.172,627.521 149.338,532.021 154,408.5C 154.934,395.359 156.767,382.359 159.5,369.5C 215.734,425.234 271.734,481.068 327.5,537C 386.889,586.01 452.555,596.676 524.5,569C 553.315,555.696 577.982,536.862 598.5,512.5C 599.365,511.417 600.365,511.251 601.5,512C 634.012,543.012 666.345,574.179 698.5,605.5C 679.31,633.526 656.143,657.859 629,678.5C 609.833,659.333 590.667,640.167 571.5,621C 563.584,619.232 555.584,619.066 547.5,620.5C 569.681,643.514 592.348,666.014 615.5,688C 606.834,694.002 597.834,699.502 588.5,704.5C 560.013,676.18 531.346,648.013 502.5,620C 495.144,619.169 487.811,619.335 480.5,620.5C 510.486,650.986 540.653,681.32 571,711.5C 571.688,712.332 571.521,712.998 570.5,713.5C 560.314,718.058 549.981,721.891 539.5,725C 504.418,689.584 469.085,654.584 433.5,620C 426.144,619.169 418.811,619.335 411.5,620.5C 447.544,657.045 483.878,693.545 520.5,730C 508.698,733.377 496.698,735.877 484.5,737.5C 444.924,699.427 405.59,660.594 366.5,621C 358.891,619.27 351.224,619.104 343.5,620.5C 344,621.5 344.5,622.5 345,623.5C 383.062,661.729 421.228,699.729 459.5,737.5 Z"/></g>
<g><path style="opacity:0.765" fill="#fdfae0" d="M 881.5,380.5 C 882.806,385.616 883.473,390.949 883.5,396.5C 881.74,391.447 881.073,386.114 881.5,380.5 Z"/></g>
<g><path style="opacity:0.988" fill="#fcf9ca" d="M 883.5,397.5 C 884.167,401.833 884.833,406.167 885.5,410.5C 885.5,429.833 885.5,449.167 885.5,468.5C 884.703,475.857 883.703,483.19 882.5,490.5C 884.778,459.526 885.112,428.526 883.5,397.5 Z"/></g>
<g><path style="opacity:0.65" fill="#fefdf2" d="M 882.5,490.5 C 870.824,587.14 831.991,670.806 766,741.5C 759.91,748.096 753.41,754.096 746.5,759.5C 821.822,685.333 867.155,595.666 882.5,490.5 Z"/></g>
<g><path style="opacity:1" fill="#514f2d" d="M 459.5,737.5 C 460.289,737.783 460.956,738.283 461.5,739C 454.321,739.821 447.321,739.655 440.5,738.5C 447.022,738.823 453.355,738.49 459.5,737.5 Z"/></g>
<g><path style="opacity:0.008" fill="#fefcea" d="M 118.5,739.5 C 125.5,745.833 132.167,752.5 138.5,759.5C 137.761,759.631 137.094,759.464 136.5,759C 129.904,752.91 123.904,746.41 118.5,739.5 Z"/></g>
<g><path style="opacity:0.976" fill="#fdfcec" d="M 138.5,759.5 C 142.771,762.101 146.437,765.434 149.5,769.5C 145.229,766.899 141.563,763.566 138.5,759.5 Z"/></g>
<g><path style="opacity:0.247" fill="#fefdf4" d="M 743.5,762.5 C 741.431,765.573 738.764,767.906 735.5,769.5C 737.569,766.427 740.236,764.094 743.5,762.5 Z"/></g>
<g><path style="opacity:0.992" fill="#fdfbe9" d="M 149.5,769.5 C 152.427,770.757 154.761,772.757 156.5,775.5C 153.573,774.243 151.239,772.243 149.5,769.5 Z"/></g>
<g><path style="opacity:0.122" fill="#fcfdf2" d="M 734.5,770.5 C 733.089,772.914 731.089,774.581 728.5,775.5C 729.911,773.086 731.911,771.419 734.5,770.5 Z"/></g>
<g><path style="opacity:0.945" fill="#fdfcf2" d="M 156.5,775.5 C 159.089,776.419 161.089,778.086 162.5,780.5C 159.911,779.581 157.911,777.914 156.5,775.5 Z"/></g>
<g><path style="opacity:0.027" fill="#fefdf7" d="M 727.5,776.5 C 726.415,778.587 724.749,779.92 722.5,780.5C 723.585,778.413 725.251,777.08 727.5,776.5 Z"/></g>
<g><path style="opacity:0.945" fill="#fefef6" d="M 162.5,780.5 C 164.749,781.08 166.415,782.413 167.5,784.5C 165.251,783.92 163.585,782.587 162.5,780.5 Z"/></g>
<g><path style="opacity:0.027" fill="#fefdf4" d="M 722.5,780.5 C 721.415,782.587 719.749,783.92 717.5,784.5C 718.585,782.413 720.251,781.08 722.5,780.5 Z"/></g>
<g><path style="opacity:0.376" fill="#fcfbf4" d="M 717.5,784.5 C 716.738,786.262 715.404,787.262 713.5,787.5C 714.262,785.738 715.596,784.738 717.5,784.5 Z"/></g>
<g><path style="opacity:0.161" fill="#fefef8" d="M 712.5,788.5 C 711.738,790.262 710.404,791.262 708.5,791.5C 709.262,789.738 710.596,788.738 712.5,788.5 Z"/></g>
<g><path style="opacity:0.086" fill="#fefdf7" d="M 708.5,791.5 C 706.704,793.9 704.37,795.567 701.5,796.5C 703.296,794.1 705.63,792.433 708.5,791.5 Z"/></g>
<g><path style="opacity:0.255" fill="#fefef3" d="M 701.5,796.5 C 700.738,798.262 699.404,799.262 697.5,799.5C 698.262,797.738 699.596,796.738 701.5,796.5 Z"/></g>
<g><path style="opacity:0.063" fill="#f6fdf6" d="M 697.5,799.5 C 697.027,800.906 696.027,801.573 694.5,801.5C 694.973,800.094 695.973,799.427 697.5,799.5 Z"/></g>
<g><path style="opacity:0.488" fill="#fdfcf1" d="M 171.5,787.5 C 181.117,793.786 190.45,800.453 199.5,807.5C 189.326,801.99 179.993,795.324 171.5,787.5 Z"/></g>
<g><path style="opacity:0.102" fill="#fefdf8" d="M 694.5,801.5 C 694.027,802.906 693.027,803.573 691.5,803.5C 691.973,802.094 692.973,801.427 694.5,801.5 Z"/></g>
<g><path style="opacity:0.153" fill="#fefcf3" d="M 691.5,803.5 C 691.027,804.906 690.027,805.573 688.5,805.5C 688.973,804.094 689.973,803.427 691.5,803.5 Z"/></g>
<g><path style="opacity:0.078" fill="#fefdf4" d="M 685.5,807.5 C 685.027,808.906 684.027,809.573 682.5,809.5C 682.973,808.094 683.973,807.427 685.5,807.5 Z"/></g>
<g><path style="opacity:0.4" fill="#fdfdf1" d="M 199.5,807.5 C 202.704,808.383 205.371,810.05 207.5,812.5C 204.296,811.617 201.629,809.95 199.5,807.5 Z"/></g>
<g><path style="opacity:0.043" fill="#fefdf5" d="M 682.5,809.5 C 682.027,810.906 681.027,811.573 679.5,811.5C 679.973,810.094 680.973,809.427 682.5,809.5 Z"/></g>
<g><path style="opacity:0.847" fill="#fbfaed" d="M 207.5,812.5 C 209.027,812.427 210.027,813.094 210.5,814.5C 208.973,814.573 207.973,813.906 207.5,812.5 Z"/></g>
<g><path style="opacity:0.122" fill="#faf9f0" d="M 677.5,812.5 C 677.027,813.906 676.027,814.573 674.5,814.5C 674.973,813.094 675.973,812.427 677.5,812.5 Z"/></g>
</svg>
